<mxfile host="app.diagrams.net" modified="2024-01-19T01:57:05.830Z" agent="Mozilla/5.0 (X11; Linux x86_64) AppleWebKit/537.36 (KHTML, like Gecko) Chrome/119.0.0.0 Safari/537.36" version="22.1.18" etag="s6R3gJE0kEUrMOHpsgN5" type="github">
  <diagram name="第 1 页" id="no5YuKoEyBlCR1CtLkXJ">
    <mxGraphModel>
      <root>
        <mxCell id="0" />
        <mxCell id="1" parent="0" />
      </root>
    </mxGraphModel>
  </diagram>
</mxfile>
